<svg version="1.1" id="Layer_1" xmlns="http://www.w3.org/2000/svg" xmlns:xlink="http://www.w3.org/1999/xlink" x="0px" y="0px"
	 width="100%" viewBox="0 0 400 400" enable-background="new 0 0 400 400" xml:space="preserve">
<path fill="#000000" opacity="1.000000" stroke="none" 
	d="
M97.456726,73.495010 
	C79.084358,83.007698 65.961189,96.624588 61.604656,116.949074 
	C57.664207,135.332428 62.412762,152.603912 70.519600,169.067001 
	C80.499901,189.334656 95.491020,205.970276 110.029434,222.914841 
	C137.153503,254.527924 164.292648,286.128082 191.435669,317.724884 
	C193.053482,319.608185 194.761032,321.414398 196.218567,323.026154 
	C197.871338,323.192352 198.411087,322.271637 198.921829,321.443329 
	C215.301056,294.880249 238.299683,274.697296 262.343475,255.500015 
	C278.616608,242.507065 295.263092,229.940170 310.142731,215.302002 
	C327.795074,197.936157 342.839630,178.801865 349.769043,154.452621 
	C354.763336,136.903168 354.207733,119.492790 346.832977,102.740471 
	C337.219788,80.903305 319.111725,71.223946 296.251282,69.441551 
	C277.465240,67.976822 260.411652,73.437042 244.754822,83.694679 
	C242.597534,85.108047 240.600494,87.089043 237.758453,86.978729 
	C235.928177,85.612175 238.622040,83.727470 236.730377,82.144928 
	C223.380508,92.786324 216.274429,108.197212 207.183563,122.624069 
	C204.527527,119.992126 204.612122,117.552917 205.086746,115.121803 
	C207.387268,103.338249 212.350922,93.003433 219.633438,83.244865 
	C228.721573,71.066795 239.371552,61.393181 253.263412,55.336803 
	C288.981628,39.764893 336.433258,49.101574 358.163330,80.652107 
	C367.034515,93.532471 372.026672,107.774933 373.440247,123.371712 
	C373.952423,129.022949 375.051666,134.714203 373.758728,140.261414 
	C368.379395,163.341339 360.688171,185.343292 346.819611,205.091492 
	C330.124939,228.863998 308.321014,247.151077 286.044708,265.111633 
	C265.420502,281.740143 244.698288,298.234375 228.302872,319.406189 
	C218.372131,332.230011 211.917816,346.767914 206.074112,361.685669 
	C205.421066,363.352722 205.107880,365.253052 203.306580,366.541046 
	C199.911331,364.948090 197.989639,361.694550 195.674774,358.988312 
	C157.662216,314.548645 119.687645,270.076355 81.794746,225.534637 
	C65.743271,206.666748 51.193245,186.786942 43.315067,162.917984 
	C35.720772,139.909149 34.428223,116.818085 45.177429,94.399414 
	C58.191349,67.257439 80.698029,51.296452 109.358208,44.910194 
	C145.148743,36.935101 176.353424,47.187260 198.454330,80.561203 
	C202.031067,85.962318 205.192322,91.638573 208.492645,97.099968 
	C207.205521,98.714340 206.129776,100.063591 204.546982,102.048798 
	C199.243820,97.471466 196.969315,90.743385 191.182510,85.109100 
	C197.405258,99.155151 204.108658,111.553635 205.201050,125.934967 
	C201.464478,126.447960 200.881714,123.928848 199.851196,122.231262 
	C193.027527,110.990601 187.135147,99.171974 178.939987,88.786209 
	C169.342651,76.623482 157.723785,67.364807 141.884506,65.481583 
	C126.524094,63.655273 111.705002,66.312675 97.456726,73.495010 
z"/>
</svg>